<svg id="design-distribution-of-elements-of-an-article" xmlns="http://www.w3.org/2000/svg" width="30.847" height="22.163" viewBox="0 0 30.847 22.163">
  <path id="Path_290" data-name="Path 290" d="M71.75,164.649h9.043a1.333,1.333,0,0,1,0,2.661H71.75a1.333,1.333,0,0,1,0-2.661Z" transform="translate(-53.401 -164.503)" fill="#b8bec0"/>
  <path id="Path_291" data-name="Path 291" d="M167.75,450.85h6.042a1.333,1.333,0,0,1,0,2.661H167.75a1.333,1.333,0,0,1,0-2.661Z" transform="translate(-149.401 -441.184)" fill="#b8bec0"/>
  <path id="Path_292" data-name="Path 292" d="M1.25,307.75H12.5a1.333,1.333,0,0,1,0,2.661H1.25a1.333,1.333,0,0,1,0-2.661Z" transform="translate(17.099 -302.844)" fill="#b8bec0"/>
  <path id="Path_293" data-name="Path 293" d="M1.25,594.05H12.5a1.333,1.333,0,0,1,0,2.661H1.25a1.333,1.333,0,0,1,0-2.661Z" transform="translate(17.099 -579.621)" fill="#b8bec0"/>
  <path id="Path_294" data-name="Path 294" d="M1.25,737.15H12.5a1.333,1.333,0,0,1,0,2.661H1.25a1.333,1.333,0,0,1,0-2.661Z" transform="translate(17.099 -717.961)" fill="#b8bec0"/>
  <path id="Path_295" data-name="Path 295" d="M514.276,160.25h11.078a1.94,1.94,0,0,1,1.875,2v18.171a1.94,1.94,0,0,1-1.875,2H514.276a1.94,1.94,0,0,1-1.875-2V162.246A1.936,1.936,0,0,1,514.276,160.25Z" transform="translate(-512.4 -160.25)" fill="#b8bec0"/>
</svg>
